<svg width="137" height="40" viewBox="0 0 137 40" fill="none" xmlns="http://www.w3.org/2000/svg">
<path d="M130.47 9.90789V30.1942H136.282L132.214 33.4045C131.051 34.3086 129.741 34.7607 128.284 34.7607C127.416 34.7607 126.595 34.5946 125.821 34.2625C125.046 33.9304 124.372 33.4783 123.8 32.9064C123.228 32.3344 122.776 31.6702 122.444 30.9137C122.112 30.1388 121.946 29.3085 121.946 28.4229V9.90789V7.0573V6.72519L130.47 0V7.0573H136.282V9.90789H130.47Z" fill="#242424"/>
<path d="M100.058 21.5542L106.534 16.5172C106.663 15.8899 106.709 15.281 106.672 14.6906C106.654 14.0817 106.58 13.5005 106.451 12.947C106.322 12.3935 106.147 11.8677 105.925 11.3695C105.704 10.8529 105.473 10.3824 105.233 9.95805C104.643 8.94328 103.942 8.0023 103.13 7.13513C104.145 7.13513 105.178 7.28274 106.23 7.57794C107.281 7.8547 108.268 8.26983 109.191 8.82335C110.113 9.37686 110.934 10.0688 111.654 10.899C112.392 11.7108 112.955 12.6518 113.342 13.7219C113.73 14.7736 113.905 15.9637 113.868 17.2921C113.85 18.6021 113.545 20.0228 112.955 21.5542H100.058ZM97.1243 18.6759C97.401 20.5763 98.0191 22.3106 98.9786 23.8789C99.9564 25.4472 101.156 26.7664 102.576 27.8365C103.997 28.9067 105.593 29.6816 107.364 30.1613C109.154 30.641 110.999 30.7425 112.899 30.4657C113.01 30.4288 113.102 30.4104 113.176 30.4104C112.125 31.5174 110.907 32.4491 109.523 33.2056C108.158 33.9436 106.654 34.4326 105.012 34.6724C103.111 34.9492 101.266 34.8477 99.4767 34.368C97.7055 33.8883 96.1095 33.1134 94.6888 32.0432C93.2682 30.9731 92.0689 29.6539 91.091 28.0856C90.1316 26.5173 89.5135 24.783 89.2367 22.8826C88.96 21.0006 89.0522 19.1833 89.5135 17.4305C89.9932 15.6777 90.7497 14.091 91.7829 12.6703C92.8161 11.2496 94.0984 10.0595 95.6298 9.1001C97.1796 8.12223 98.8863 7.47647 100.75 7.16281C100.049 7.91928 99.4306 8.74032 98.8955 9.62594C98.3789 10.4931 97.9638 11.4249 97.6501 12.4212C97.3365 13.3991 97.1243 14.4138 97.0136 15.4655C96.9213 16.5172 96.9582 17.5873 97.1243 18.6759Z" fill="#242424"/>
<path d="M23.4413 8.80087L12.8969 0H23.4413V8.80087ZM22.3619 18.5427C23.2845 19.4099 24.004 20.4247 24.5207 21.587C25.0373 22.7494 25.2956 24.004 25.2956 25.3509C25.2956 26.7532 25.0188 28.0539 24.4653 29.2532C23.9118 30.4525 23.1461 31.4857 22.1682 32.3529C21.3379 33.0909 20.3877 33.6721 19.3176 34.0964C18.2659 34.5208 17.1405 34.733 15.9412 34.733C16.4025 34.733 16.8268 34.6499 17.2143 34.4839C17.6202 34.2994 17.9707 34.0595 18.2659 33.7643C18.5612 33.4507 18.7918 33.1001 18.9578 32.7127C19.1423 32.3067 19.2346 31.8732 19.2346 31.4119C19.2346 30.9322 19.1331 30.4894 18.9302 30.0835C18.7457 29.6591 18.4966 29.2993 18.1829 29.0041C18.1276 28.9488 18.0445 28.8842 17.9338 28.8104L7.97059 20.4247L4.78789 17.7678L4.89859 17.6294H4.87092L4.78789 17.7678L3.81924 16.9375C3.67164 16.8268 3.52404 16.7161 3.37643 16.6054C3.24728 16.4763 3.1089 16.3471 2.9613 16.2179C2.03877 15.3508 1.30998 14.336 0.774919 13.1736C0.258306 12.0112 0 10.7566 0 9.40973C0 8.02595 0.276758 6.73442 0.830271 5.53514C1.40224 4.33586 2.17715 3.30263 3.15503 2.43546C3.9853 1.67899 4.92627 1.0978 5.97795 0.691891C7.02962 0.267533 8.16432 0.0553539 9.38205 0.0553539C8.92079 0.0553539 8.48721 0.147606 8.0813 0.33211C7.69384 0.498163 7.3525 0.728794 7.0573 1.024C6.76209 1.31921 6.52224 1.66977 6.33773 2.07568C6.17168 2.46314 6.08865 2.8875 6.08865 3.34876C6.08865 3.82847 6.1809 4.28051 6.36541 4.70487C6.56836 5.11078 6.82667 5.47056 7.14032 5.78422C7.25103 5.85802 7.33405 5.9226 7.38941 5.97795L11.6515 9.54811L21.504 17.8231C21.6516 17.9523 21.79 18.0722 21.9191 18.1829C22.0667 18.2936 22.2143 18.4136 22.3619 18.5427ZM5.47978 24.0225C6.2178 24.0225 6.90969 24.1701 7.55546 24.4653C8.21968 24.7421 8.79164 25.1203 9.27135 25.6C9.75106 26.0797 10.1293 26.6517 10.4061 27.3159C10.7013 27.9617 10.8489 28.6536 10.8489 29.3916C10.8489 30.1296 10.7013 30.8307 10.4061 31.4949C10.1293 32.1407 9.75106 32.7034 9.27135 33.1831C8.79164 33.6629 8.21968 34.0503 7.55546 34.3455C6.90969 34.6223 6.2178 34.7607 5.47978 34.7607C4.72332 34.7607 4.01297 34.6223 3.34876 34.3455C2.70299 34.0503 2.14025 33.6629 1.66054 33.1831C1.18083 32.7034 0.79337 32.1407 0.498162 31.4949C0.221406 30.8307 0.0830276 30.1296 0.0830276 29.3916C0.0830276 28.6536 0.221406 27.9617 0.498162 27.3159C0.79337 26.6517 1.18083 26.0797 1.66054 25.6C2.14025 25.1203 2.70299 24.7421 3.34876 24.4653C4.01297 24.1701 4.72332 24.0225 5.47978 24.0225Z" fill="#242424"/>
<mask id="mask0_163_92" style="mask-type:alpha" maskUnits="userSpaceOnUse" x="61" y="0" width="10" height="40">
<rect width="8.21622" height="40" transform="matrix(-1 0 0 1 70.054 0)" fill="#242424"/>
</mask>
<g mask="url(#mask0_163_92)">
<path d="M61.8378 6.81081L70.054 0V30.9189H61.8378V6.81081Z" fill="#242424"/>
<ellipse cx="72.2162" cy="31.027" rx="10.3784" ry="8.97297" fill="#242424"/>
</g>
<path d="M74.3784 6.7027L82.5946 0V30.4762H74.3784V6.7027Z" fill="#242424"/>
<path d="M74.3784 6.7027L82.5946 0L78.4865 34.709H74.3784V6.7027Z" fill="#242424"/>
<ellipse cx="78.4865" cy="30.6879" rx="4.10811" ry="4.02116" fill="#242424"/>
<path d="M38.8688 15.7976C38.2784 15.7976 37.7156 15.6869 37.1806 15.4655C36.664 15.2257 36.2119 14.912 35.8245 14.5245C35.437 14.1371 35.1233 13.685 34.8835 13.1684C34.6621 12.6334 34.5514 12.0706 34.5514 11.4802C34.5514 10.8898 34.6621 10.3363 34.8835 9.81968C35.1233 9.28462 35.437 8.82336 35.8245 8.4359C36.2119 8.04844 36.664 7.74401 37.1806 7.5226C37.7156 7.30119 38.2784 7.19049 38.8688 7.19049C39.4592 7.19049 40.0127 7.30119 40.5293 7.5226C41.0644 7.74401 41.5257 8.04844 41.9131 8.4359C42.3006 8.82336 42.605 9.28462 42.8264 9.81968C43.0663 10.3363 43.1862 10.8898 43.1862 11.4802C43.1862 12.0706 43.0663 12.6334 42.8264 13.1684C42.605 13.685 42.3006 14.1371 41.9131 14.5245C41.5257 14.912 41.0644 15.2257 40.5293 15.4655C40.0127 15.6869 39.4592 15.7976 38.8688 15.7976ZM45.5386 20.0597C44.7822 20.3918 44.0903 20.7977 43.4629 21.2774C42.8356 21.7571 42.3006 22.3014 41.8578 22.9103C41.415 23.5007 41.0644 24.1465 40.8061 24.8476C40.5662 25.5302 40.4463 26.2498 40.4463 27.0063C40.4463 27.7627 40.5662 28.4915 40.8061 29.1927C41.0644 29.8753 41.415 30.5211 41.8578 31.1299C42.3006 31.7204 42.8356 32.2554 43.4629 32.7351C44.0903 33.2149 44.7822 33.6208 45.5386 33.9529C44.1917 34.5248 42.7434 34.8108 41.1935 34.8108C39.8836 34.8108 38.6566 34.6079 37.5127 34.202C36.3872 33.796 35.3909 33.2425 34.5237 32.5414C33.675 31.8218 33.0015 30.9916 32.5034 30.0506C32.0237 29.1096 31.7838 28.0949 31.7838 27.0063C31.7838 25.9361 32.0237 24.9306 32.5034 23.9896C33.0015 23.0302 33.675 22.1999 34.5237 21.4988C35.3909 20.7792 36.3872 20.2165 37.5127 19.8106C38.6566 19.4047 39.8836 19.2017 41.1935 19.2017C42.7434 19.2017 44.1917 19.4877 45.5386 20.0597Z" fill="#242424"/>
<mask id="mask1_163_92" style="mask-type:alpha" maskUnits="userSpaceOnUse" x="46" y="6" width="10" height="29">
<rect width="8.43243" height="28.1081" transform="matrix(-1 0 0 1 55.3514 6.7027)" fill="#242424"/>
</mask>
<g mask="url(#mask1_163_92)">
<path d="M57.0517 33.3993L57.6217 31.8919L58.228 30.189H55.3359V24.0173V13.4729C55.3359 12.6057 55.1698 11.7846 54.8377 11.0097C54.5056 10.2348 54.0535 9.56137 53.4816 8.9894C52.9096 8.41744 52.2362 7.9654 51.4613 7.63329C50.7048 7.30119 49.893 7.13513 49.0258 7.13513C48.2509 7.13513 47.5221 7.27351 46.8394 7.55027V11.7016V14.995V28.4177C46.8394 29.2849 47.0055 30.1059 47.3376 30.8809C47.6697 31.6373 48.1217 32.3015 48.6937 32.8735C49.2657 33.4455 49.9299 33.8975 50.6863 34.2296C51.4613 34.5617 52.2823 34.7278 53.1495 34.7278C54.6071 34.7278 55.9078 34.285 57.0517 33.3993Z" fill="#242424"/>
</g>
</svg>
