<svg width="112" height="40" viewBox="0 0 112 40" fill="none" xmlns="http://www.w3.org/2000/svg">
<path d="M106.988 8.12468V24.7599H111.754L108.418 27.3924C107.465 28.1338 106.391 28.5045 105.195 28.5045C104.484 28.5045 103.811 28.3683 103.176 28.096C102.54 27.8236 101.988 27.453 101.519 26.9839C101.05 26.5149 100.679 25.9702 100.407 25.3499C100.135 24.7145 99.9984 24.0336 99.9984 23.3074V8.12468V5.78714V5.5148L106.988 0V5.78714H111.754V8.12468H106.988Z" fill="white"/>
<path d="M82.0497 17.675L87.3603 13.5446C87.4662 13.0301 87.504 12.5309 87.4737 12.0467C87.4586 11.5474 87.3981 11.0708 87.2922 10.6169C87.1863 10.1631 87.0425 9.73186 86.861 9.32335C86.6794 8.89972 86.4903 8.51391 86.2936 8.16593C85.8095 7.33379 85.2345 6.56217 84.5688 5.85107C85.401 5.85107 86.2482 5.97211 87.1106 6.21419C87.973 6.44114 88.7825 6.78155 89.5389 7.23545C90.2954 7.68934 90.9687 8.25671 91.5588 8.93755C92.164 9.60326 92.6254 10.3749 92.9431 11.2524C93.2609 12.1148 93.4046 13.0907 93.3743 14.18C93.3592 15.2542 93.1096 16.4192 92.6254 17.675H82.0497ZM79.6441 15.3147C79.871 16.8731 80.3779 18.2953 81.1646 19.5813C81.9665 20.8674 82.9499 21.9491 84.1149 22.8267C85.2799 23.7042 86.5886 24.3396 88.0411 24.733C89.5087 25.1264 91.0217 25.2096 92.58 24.9827C92.6708 24.9524 92.7465 24.9373 92.807 24.9373C91.9446 25.8451 90.946 26.6091 89.8113 27.2294C88.6917 27.8346 87.4586 28.2356 86.1121 28.4322C84.5537 28.6592 83.0407 28.576 81.5731 28.1826C80.1207 27.7892 78.812 27.1538 77.647 26.2763C76.482 25.3987 75.4985 24.3169 74.6967 23.0309C73.9099 21.7449 73.4031 20.3227 73.1761 18.7643C72.9492 17.2211 73.0248 15.7308 73.4031 14.2935C73.7964 12.8562 74.4168 11.555 75.264 10.39C76.1113 9.22501 77.1628 8.24914 78.4186 7.46239C79.6895 6.66052 81.089 6.13097 82.6171 5.87377C82.0422 6.49409 81.5353 7.16736 81.0965 7.89359C80.6729 8.60469 80.3325 9.36874 80.0753 10.1858C79.8181 10.9876 79.6441 11.8198 79.5533 12.6822C79.4777 13.5446 79.5079 14.4221 79.6441 15.3147Z" fill="white"/>
<path d="M19.2224 7.2169L10.5757 0H19.2224V7.2169ZM18.3373 15.2054C19.0938 15.9165 19.6838 16.7486 20.1075 17.7018C20.5311 18.655 20.7429 19.6838 20.7429 20.7883C20.7429 21.9382 20.516 23.0048 20.0621 23.9882C19.6082 24.9717 18.9803 25.8189 18.1784 26.53C17.4976 27.1352 16.7184 27.6118 15.8409 27.9598C14.9785 28.3078 14.0556 28.4818 13.0721 28.4818C13.4504 28.4818 13.7983 28.4137 14.1161 28.2775C14.4489 28.1262 14.7364 27.9295 14.9785 27.6875C15.2205 27.4303 15.4097 27.1428 15.5458 26.8251C15.6971 26.4922 15.7728 26.1367 15.7728 25.7584C15.7728 25.365 15.6896 25.0019 15.5231 24.6691C15.3718 24.3211 15.1676 24.0261 14.9104 23.784C14.865 23.7386 14.7969 23.6856 14.7061 23.6251L6.53606 16.7486L3.92617 14.57L4.01695 14.4565H3.99426L3.92617 14.57L3.13186 13.8891C3.01082 13.7983 2.88978 13.7076 2.76875 13.6168C2.66284 13.5109 2.54936 13.405 2.42833 13.2991C1.67184 12.588 1.07421 11.7558 0.63545 10.8027C0.211817 9.84948 0 8.82065 0 7.71618C0 6.58145 0.226947 5.52236 0.68084 4.53893C1.14986 3.55549 1.78531 2.70823 2.58719 1.99713C3.26803 1.37681 4.03965 0.900221 4.90204 0.567365C5.76444 0.219383 6.69492 0.0453914 7.69348 0.0453914C7.31524 0.0453914 6.95969 0.12104 6.62684 0.272338C6.30911 0.408505 6.02921 0.597626 5.78713 0.839703C5.54506 1.08178 5.34837 1.36925 5.19707 1.7021C5.06091 2.01982 4.99282 2.36781 4.99282 2.74605C4.99282 3.13943 5.06847 3.51011 5.21977 3.85809C5.3862 4.19094 5.59801 4.48597 5.85522 4.74318C5.946 4.8037 6.01408 4.85665 6.05947 4.90204L9.55445 7.82965L17.6337 14.6154C17.7548 14.7213 17.8683 14.8196 17.9742 14.9104C18.0952 15.0012 18.2162 15.0995 18.3373 15.2054ZM4.49354 19.699C5.09873 19.699 5.6661 19.82 6.19564 20.0621C6.74031 20.289 7.20933 20.5992 7.60271 20.9925C7.99608 21.3859 8.30624 21.8549 8.53319 22.3996C8.77526 22.9292 8.8963 23.4965 8.8963 24.1017C8.8963 24.7069 8.77526 25.2818 8.53319 25.8265C8.30624 26.356 7.99608 26.8175 7.60271 27.2109C7.20933 27.6043 6.74031 27.922 6.19564 28.1641C5.6661 28.391 5.09873 28.5045 4.49354 28.5045C3.87322 28.5045 3.29072 28.391 2.74605 28.1641C2.21651 27.922 1.75505 27.6043 1.36168 27.2109C0.968305 26.8175 0.65058 26.356 0.408504 25.8265C0.181557 25.2818 0.0680844 24.7069 0.0680844 24.1017C0.0680844 23.4965 0.181557 22.9292 0.408504 22.3996C0.65058 21.8549 0.968305 21.3859 1.36168 20.9925C1.75505 20.5992 2.21651 20.289 2.74605 20.0621C3.29072 19.82 3.87322 19.699 4.49354 19.699Z" fill="white"/>
<path d="M86.1473 39.9998C86.4197 39.9998 86.6495 39.7956 86.6495 39.4807C86.6495 39.1658 86.4537 38.9615 86.1473 38.9615C85.858 38.9615 85.6367 39.2168 85.6367 39.4807C85.6367 39.77 85.875 39.9998 86.1473 39.9998Z" fill="white"/>
<path d="M89.0133 39.9998H89.9749C90.2217 39.9998 90.3494 39.9828 90.3494 39.8551C90.3494 39.5658 90.0941 39.77 90.2217 39.2764L90.2983 38.9785C90.3409 38.8849 90.443 38.8594 90.5281 38.8594H92.5877C92.6983 38.8594 92.7664 38.8764 92.8089 38.9956L92.9621 39.4211C93.0642 39.7105 92.7664 39.6083 92.7664 39.8551C92.7664 39.9828 92.8515 39.9998 93.0472 39.9998H94.0685C94.3068 39.9998 94.3919 39.9828 94.3919 39.8381C94.3919 39.6424 94.1451 39.7019 94.0174 39.37L92.1962 34.6637C92.077 34.3659 92.3579 34.3914 92.3579 34.2042C92.3579 34.085 92.2813 34.0425 92.1451 34.0425H90.8941C90.7664 34.0425 90.6898 34.085 90.6898 34.2042C90.6898 34.3659 90.9111 34.3574 90.809 34.6637L89.192 39.3275C89.0643 39.7019 88.775 39.6253 88.775 39.8381C88.775 39.9743 88.8941 39.9998 89.0133 39.9998ZM90.7324 38.0169C90.6302 38.0169 90.5792 37.9658 90.6132 37.8637L91.4387 35.4722C91.4643 35.3956 91.5409 35.3871 91.5749 35.4807L92.4175 37.8296C92.4515 37.9232 92.4345 38.0169 92.3323 38.0169H90.7324Z" fill="white"/>
<path d="M96.9464 39.9998H97.9506C98.1378 39.9998 98.2655 40.0083 98.2655 39.8722C98.2655 39.6679 97.9166 39.7445 97.9166 39.0807V38.2126C97.9166 38.0679 97.908 38.0339 98.1719 38.0424H99.6953C101.159 38.0424 101.831 37.2169 101.831 35.9829C101.831 34.5361 100.878 34.0425 99.8144 34.0425H96.9804C96.6655 34.0425 96.5208 34.0254 96.5208 34.1957C96.5208 34.4254 96.9123 34.2637 96.9123 34.868V39.1232C96.9123 39.7615 96.5464 39.6339 96.5464 39.8636C96.5464 39.9913 96.7251 39.9998 96.9464 39.9998ZM98.0612 37.0722C97.8995 37.0722 97.9166 36.9701 97.9166 36.8254V35.3616C97.9166 34.9871 97.9251 34.9786 98.1889 34.9786H99.5931C100.317 34.9786 100.844 35.285 100.844 35.9914C100.844 36.6722 100.47 37.0722 99.6442 37.0722H98.0612Z" fill="white"/>
<path d="M104.549 39.9998H105.554C105.741 39.9998 105.868 40.0083 105.868 39.8722C105.868 39.6679 105.519 39.7445 105.519 39.0807V38.2126C105.519 38.0679 105.511 38.0339 105.775 38.0424H107.298C108.762 38.0424 109.434 37.2169 109.434 35.9829C109.434 34.5361 108.481 34.0425 107.417 34.0425H104.583C104.268 34.0425 104.124 34.0254 104.124 34.1957C104.124 34.4254 104.515 34.2637 104.515 34.868V39.1232C104.515 39.7615 104.149 39.6339 104.149 39.8636C104.149 39.9913 104.328 39.9998 104.549 39.9998ZM105.664 37.0722C105.502 37.0722 105.519 36.9701 105.519 36.8254V35.3616C105.519 34.9871 105.528 34.9786 105.792 34.9786H107.196C107.919 34.9786 108.447 35.285 108.447 35.9914C108.447 36.6722 108.073 37.0722 107.247 37.0722H105.664Z" fill="white"/>
<mask id="mask0_348_478" style="mask-type:alpha" maskUnits="userSpaceOnUse" x="50" y="0" width="8" height="33">
<rect width="6.73747" height="32.8008" transform="matrix(-1 0 0 1 57.4459 0)" fill="#F5C365"/>
</mask>
<g mask="url(#mask0_348_478)">
<path d="M50.7082 5.58501L57.4457 0V25.3542H50.7082V5.58501Z" fill="#F5C365"/>
<ellipse cx="59.2189" cy="25.443" rx="8.51049" ry="7.35803" fill="#F5C365"/>
</g>
<path d="M60.992 5.49636L67.7295 0V24.9911H60.992V5.49636Z" fill="#B3E0B8"/>
<path d="M60.992 5.49636L67.7295 0L64.3607 28.4621H60.992V5.49636Z" fill="#B3E0B8"/>
<ellipse cx="64.3609" cy="25.1649" rx="3.36874" ry="3.29744" fill="#B3E0B8"/>
<path d="M31.8729 12.9545C31.3888 12.9545 30.9273 12.8637 30.4886 12.6822C30.0649 12.4855 29.6943 12.2283 29.3765 11.9106C29.0588 11.5928 28.8016 11.2222 28.6049 10.7985C28.4234 10.3598 28.3326 9.89831 28.3326 9.41415C28.3326 8.93 28.4234 8.47611 28.6049 8.05248C28.8016 7.61371 29.0588 7.23547 29.3765 6.91774C29.6943 6.60002 30.0649 6.35038 30.4886 6.16882C30.9273 5.98726 31.3888 5.89648 31.8729 5.89648C32.3571 5.89648 32.811 5.98726 33.2346 6.16882C33.6734 6.35038 34.0516 6.60002 34.3694 6.91774C34.6871 7.23547 34.9367 7.61371 35.1183 8.05248C35.315 8.47611 35.4133 8.93 35.4133 9.41415C35.4133 9.89831 35.315 10.3598 35.1183 10.7985C34.9367 11.2222 34.6871 11.5928 34.3694 11.9106C34.0516 12.2283 33.6734 12.4855 33.2346 12.6822C32.811 12.8637 32.3571 12.9545 31.8729 12.9545ZM37.3423 16.4495C36.722 16.7218 36.1547 17.0547 35.6403 17.4481C35.1258 17.8414 34.6871 18.2878 34.324 18.787C33.9608 19.2712 33.6734 19.8007 33.4616 20.3757C33.2649 20.9355 33.1665 21.5255 33.1665 22.1459C33.1665 22.7662 33.2649 23.3638 33.4616 23.9387C33.6734 24.4985 33.9608 25.0281 34.324 25.5274C34.6871 26.0115 35.1258 26.4503 35.6403 26.8436C36.1547 27.237 36.722 27.5699 37.3423 27.8422C36.2379 28.3112 35.0502 28.5457 33.7793 28.5457C32.7051 28.5457 31.6989 28.3793 30.7609 28.0465C29.838 27.7136 29.021 27.2597 28.3099 26.6848C27.6139 26.0947 27.0617 25.4139 26.6532 24.6423C26.2598 23.8706 26.0631 23.0385 26.0631 22.1459C26.0631 21.2683 26.2598 20.4438 26.6532 19.6721C27.0617 18.8854 27.6139 18.2045 28.3099 17.6296C29.021 17.0396 29.838 16.5781 30.7609 16.2452C31.6989 15.9124 32.7051 15.746 33.7793 15.746C35.0502 15.746 36.2379 15.9805 37.3423 16.4495Z" fill="white"/>
<mask id="mask1_348_478" style="mask-type:alpha" maskUnits="userSpaceOnUse" x="38" y="5" width="8" height="24">
<rect width="6.91477" height="23.0492" transform="matrix(-1 0 0 1 45.3889 5.49634)" fill="#1D1D1D"/>
</mask>
<g mask="url(#mask1_348_478)">
<path d="M46.7835 27.3883L47.2509 26.1521L47.748 24.7557H45.3764V19.6948V11.0481C45.3764 10.337 45.2403 9.66377 44.9679 9.02832C44.6956 8.39287 44.3249 7.84064 43.8559 7.37162C43.3869 6.90259 42.8346 6.53191 42.1992 6.25958C41.5789 5.98724 40.9132 5.85107 40.2021 5.85107C39.5666 5.85107 38.969 5.96455 38.4092 6.19149V9.59569V12.2964V23.3033C38.4092 24.0144 38.5453 24.6876 38.8177 25.3231C39.09 25.9434 39.4607 26.4881 39.9297 26.9571C40.3987 27.4261 40.9434 27.7968 41.5637 28.0691C42.1992 28.3415 42.8725 28.4776 43.5836 28.4776C44.7788 28.4776 45.8455 28.1145 46.7835 27.3883Z" fill="white"/>
</g>
</svg>
