<?xml version="1.0" standalone="no"?>
<!DOCTYPE svg PUBLIC "-//W3C//DTD SVG 20010904//EN"
 "http://www.w3.org/TR/2001/REC-SVG-20010904/DTD/svg10.dtd">
<svg version="1.0" xmlns="http://www.w3.org/2000/svg"
 width="555.000000pt" height="555.000000pt" viewBox="0 0 555.000000 555.000000"
 preserveAspectRatio="xMidYMid meet">
<metadata>
Created by potrace 1.14, written by Peter Selinger 2001-2017
</metadata>
<g transform="translate(0.000000,555.000000) scale(0.100000,-0.100000)"
fill="#000000" stroke="none">
<path d="M0 2775 l0 -2775 2775 0 2775 0 0 2775 0 2775 -2775 0 -2775 0 0
-2775z m2620 9 l0 -1437 -41 7 c-180 29 -401 191 -483 354 -70 139 -66 76 -65
1101 l0 926 292 242 c161 133 293 242 295 242 1 1 2 -645 2 -1435z m884 -883
c-22 -58 -86 -126 -149 -159 -48 -25 -58 -27 -237 -30 l-188 -4 0 1014 0 1013
293 238 292 239 3 -1134 c2 -1040 1 -1137 -14 -1177z"/>
</g>
</svg>
